<?xml version="1.0" encoding="UTF-8" standalone="no"?><!DOCTYPE svg PUBLIC "-//W3C//DTD SVG 1.1//EN" "http://www.w3.org/Graphics/SVG/1.1/DTD/svg11.dtd"><svg width="100%" height="100%" viewBox="0 0 31 31" version="1.1" xmlns="http://www.w3.org/2000/svg" xmlns:xlink="http://www.w3.org/1999/xlink" xml:space="preserve" xmlns:serif="http://www.serif.com/" style="fill-rule:evenodd;clip-rule:evenodd;stroke-linejoin:round;stroke-miterlimit:1.5;"><g id="checkmark"><path d="M15.168,0.477l1.753,1.691l2.13,-1.179l1.255,2.086l2.362,-0.588l0.672,2.34l2.435,0.044l0.043,2.434l2.341,0.672l-0.588,2.363l2.086,1.255l-1.179,2.13l1.69,1.752l-1.69,1.753l1.179,2.13l-2.086,1.255l0.588,2.362l-2.341,0.673l-0.043,2.434l-2.435,0.044l-0.672,2.34l-2.362,-0.588l-1.255,2.086l-2.13,-1.179l-1.753,1.69l-1.752,-1.69l-2.13,1.179l-1.255,-2.086l-2.363,0.588l-0.672,-2.34l-2.434,-0.044l-0.044,-2.434l-2.34,-0.673l0.588,-2.362l-2.087,-1.255l1.18,-2.13l-1.691,-1.753l1.691,-1.752l-1.18,-2.13l2.087,-1.255l-0.588,-2.363l2.34,-0.672l0.044,-2.434l2.434,-0.044l0.672,-2.34l2.363,0.588l1.255,-2.086l2.13,1.179l1.752,-1.691Z" style="fill:#fefdf3;"/><path d="M6.744,16.164l5.136,5.136l11.645,-11.645" style="fill:none;stroke:#829d68;stroke-width:3.01px;"/></g></svg>