<?xml version="1.0" encoding="UTF-8" standalone="no"?><!DOCTYPE svg PUBLIC "-//W3C//DTD SVG 1.1//EN" "http://www.w3.org/Graphics/SVG/1.1/DTD/svg11.dtd"><svg width="100%" height="100%" viewBox="0 0 25 25" version="1.1" xmlns="http://www.w3.org/2000/svg" xmlns:xlink="http://www.w3.org/1999/xlink" xml:space="preserve" xmlns:serif="http://www.serif.com/" style="fill-rule:evenodd;clip-rule:evenodd;stroke-linejoin:round;stroke-miterlimit:2;"><g id="info_icon"><path d="M11.726,8.082l1.836,0l0,-1.782l-1.836,0l0,1.782Zm-1.386,10.926l4.608,0l0,-1.35l-1.44,0l0,-7.758l-3.258,0l0,1.35l1.512,0l0,6.408l-1.422,0l0,1.35Z" style="fill:#ffbc0d;fill-rule:nonzero;"/><path d="M12.5,0c6.899,0 12.5,5.601 12.5,12.5c0,6.899 -5.601,12.5 -12.5,12.5c-6.899,0 -12.5,-5.601 -12.5,-12.5c0,-6.899 5.601,-12.5 12.5,-12.5Zm0,1.5c6.071,0 11,4.929 11,11c0,6.071 -4.929,11 -11,11c-6.071,0 -11,-4.929 -11,-11c0,-6.071 4.929,-11 11,-11Z" style="fill:#ffb81c;"/></g></svg>